<svg width="16" height="16" viewBox="0 0 16 16" fill="none" xmlns="http://www.w3.org/2000/svg">
<path fill-rule="evenodd" clip-rule="evenodd" d="M8 14.9995C11.866 14.9995 15 11.8655 15 7.99951C15 4.13352 11.866 0.999512 8 0.999512C4.13401 0.999512 1 4.13352 1 7.99951C1 11.8655 4.13401 14.9995 8 14.9995ZM8 15.9995C12.4183 15.9995 16 12.4178 16 7.99951C16 3.58123 12.4183 -0.000488281 8 -0.000488281C3.58172 -0.000488281 0 3.58123 0 7.99951C0 12.4178 3.58172 15.9995 8 15.9995Z" fill="white"/>
<path d="M8 4.49951C8 4.22337 7.77614 3.99951 7.5 3.99951C7.22386 3.99951 7 4.22337 7 4.49951V8.49951C7 8.77565 7.22386 8.99951 7.5 8.99951C7.77614 8.99951 8 8.77565 8 8.49951V4.49951Z" fill="white"/>
<path d="M7.5 7.99951C7.22386 7.99951 7 8.22337 7 8.49951C7 8.77565 7.22386 8.99951 7.5 8.99951L10.5 8.99951C10.7761 8.99951 11 8.77565 11 8.49951C11 8.22337 10.7761 7.99951 10.5 7.99951L7.5 7.99951Z" fill="white"/>
</svg>
