<svg width="18" height="13" viewBox="0 0 18 13" fill="none" xmlns="http://www.w3.org/2000/svg">
<path fill-rule="evenodd" clip-rule="evenodd" d="M8.1002 6.94961L0.700195 1.39961L1.3002 0.599609L8.7002 6.14961C8.87797 6.28294 9.12242 6.28294 9.3002 6.14961L16.7002 0.599609L17.3002 1.39961L9.9002 6.94961C9.36686 7.34961 8.63353 7.34961 8.1002 6.94961Z" fill="white"/>
<path fill-rule="evenodd" clip-rule="evenodd" d="M16 0.999512H2C1.44772 0.999512 1 1.44723 1 1.99951V10.9995C1 11.5518 1.44772 11.9995 2 11.9995H16C16.5523 11.9995 17 11.5518 17 10.9995V1.99951C17 1.44723 16.5523 0.999512 16 0.999512ZM2 -0.000488281C0.895431 -0.000488281 0 0.894942 0 1.99951V10.9995C0 12.1041 0.89543 12.9995 2 12.9995H16C17.1046 12.9995 18 12.1041 18 10.9995V1.99951C18 0.894942 17.1046 -0.000488281 16 -0.000488281H2Z" fill="white"/>
</svg>
